<svg width="20" height="20" viewBox="0 0 20 20" fill="none" xmlns="http://www.w3.org/2000/svg">
<path d="M14.0002 15.0013C14.9336 15.0013 15.4003 15.0013 15.7568 14.8196C16.0704 14.6599 16.3254 14.4049 16.4852 14.0913C16.6668 13.7348 16.6668 13.2681 16.6668 12.3346V4.33464C16.6668 3.40121 16.6668 2.9345 16.4852 2.57798C16.3254 2.26438 16.0704 2.00941 15.7568 1.84962C15.4003 1.66797 14.9336 1.66797 14.0002 1.66797H9.3335C8.40008 1.66797 7.93337 1.66797 7.57685 1.84962C7.26324 2.00941 7.00827 2.26438 6.84849 2.57798C6.66683 2.9345 6.66683 3.40121 6.66683 4.33464M6.00016 18.3346H10.6668C11.6003 18.3346 12.067 18.3346 12.4235 18.153C12.7371 17.9932 12.9921 17.7382 13.1518 17.4246C13.3335 17.0681 13.3335 16.6014 13.3335 15.668V7.66797C13.3335 6.73455 13.3335 6.26784 13.1518 5.91132C12.9921 5.59771 12.7371 5.34275 12.4235 5.18296C12.067 5.0013 11.6003 5.0013 10.6668 5.0013H6.00016C5.06674 5.0013 4.60003 5.0013 4.24351 5.18296C3.92991 5.34275 3.67494 5.59771 3.51515 5.91132C3.3335 6.26784 3.3335 6.73455 3.3335 7.66797V15.668C3.3335 16.6014 3.3335 17.0681 3.51515 17.4246C3.67494 17.7382 3.92991 17.9932 4.24351 18.153C4.60003 18.3346 5.06674 18.3346 6.00016 18.3346Z" stroke="#262626" stroke-width="1.5"/>
</svg>
