<svg width="20" height="16" viewBox="0 0 20 16" fill="none" xmlns="http://www.w3.org/2000/svg">
<path d="M0.75 4.25H18.75M4.35 11.25H7.95M11.55 11.25H15.15M3.63 14.75H15.87C16.8781 14.75 17.3821 14.75 17.7672 14.5593C18.1059 14.3915 18.3812 14.1238 18.5538 13.7945C18.75 13.4201 18.75 12.9301 18.75 11.95V3.55C18.75 2.56991 18.75 2.07986 18.5538 1.70552C18.3812 1.37623 18.1059 1.10852 17.7672 0.940739C17.3821 0.75 16.8781 0.75 15.87 0.75H3.63C2.62191 0.75 2.11786 0.75 1.73282 0.940739C1.39413 1.10852 1.11876 1.37623 0.946188 1.70552C0.75 2.07986 0.75 2.56991 0.75 3.55V11.95C0.75 12.9301 0.75 13.4201 0.946188 13.7945C1.11876 14.1238 1.39413 14.3915 1.73282 14.5593C2.11786 14.75 2.62191 14.75 3.63 14.75Z" stroke="#4A90E2" stroke-width="1.5" stroke-linecap="round"/>
</svg>
