<svg width="18" height="18" viewBox="0 0 18 18" fill="none" xmlns="http://www.w3.org/2000/svg">
<path d="M6.02552 3.69896L5.3547 3.36355L5.35469 3.36356L6.02552 3.69896ZM6.08666 3.57669L5.41584 3.24128L5.41584 3.24128L6.08666 3.57669ZM11.9133 3.57669L11.2425 3.9121L11.2425 3.9121L11.9133 3.57669ZM11.9745 3.69896L12.6453 3.36356L12.6453 3.36355L11.9745 3.69896ZM12.0368 3.74939L11.9412 4.49327L11.9412 4.49327L12.0368 3.74939ZM11.9841 3.71682L11.3615 4.13502L11.3615 4.13504L11.9841 3.71682ZM10.8121 2.33198L11.0566 1.62297L11.0566 1.62297L10.8121 2.33198ZM11.3725 2.67837L11.8973 2.14256L11.8973 2.14256L11.3725 2.67837ZM6.62747 2.67837L6.10268 2.14256L6.10268 2.14256L6.62747 2.67837ZM7.18794 2.33198L7.4325 3.04099L7.18794 2.33198ZM5.96321 3.74939L5.86758 3.00551L5.86757 3.00551L5.96321 3.74939ZM6.0159 3.71682L5.39334 3.29859L5.39333 3.29861L6.0159 3.71682ZM3.88803 15.423L4.22852 14.7548H4.22852L3.88803 15.423ZM2.57698 14.112L3.24524 13.7715H3.24524L2.57698 14.112ZM15.423 14.112L14.7548 13.7715L15.423 14.112ZM14.112 15.423L13.7715 14.7548L14.112 15.423ZM15.7008 6.20875L16.4385 6.07343V6.07343L15.7008 6.20875ZM13.2913 3.79923L13.1559 4.53692L13.2913 3.79923ZM2.29923 6.20875L3.03692 6.34406L2.29923 6.20875ZM4.70875 3.79923L4.57343 3.06154L4.70875 3.79923ZM15.75 7.44294H15V10.95H15.75H16.5V7.44294H15.75ZM10.95 15.75V15H7.05V15.75V16.5H10.95V15.75ZM2.25 10.95H3V7.44294H2.25H1.5V10.95H2.25ZM6.02552 3.69896L6.69634 4.03438L6.75748 3.9121L6.08666 3.57669L5.41584 3.24128L5.3547 3.36355L6.02552 3.69896ZM8.23328 2.25V3H9.76672V2.25V1.5H8.23328V2.25ZM11.9133 3.57669L11.2425 3.9121L11.3037 4.03438L11.9745 3.69896L12.6453 3.36355L12.5842 3.24127L11.9133 3.57669ZM12.0571 3.75V3C12.054 3 12.0536 3 12.0538 3C12.054 3 12.0576 3.00001 12.0629 3.00014C12.0739 3.00041 12.0996 3.00129 12.1324 3.00551L12.0368 3.74939L11.9412 4.49327C11.9788 4.4981 12.0094 4.49929 12.0268 4.49971C12.0411 4.50005 12.0554 4.5 12.0571 4.5V3.75ZM11.9745 3.69896L11.3037 4.03437C11.3044 4.03589 11.3108 4.0487 11.3175 4.06131C11.3256 4.07669 11.3404 4.10355 11.3615 4.13502L11.9841 3.71682L12.6067 3.29863C12.6251 3.32611 12.6374 3.34867 12.6426 3.35842C12.6451 3.3631 12.6467 3.36633 12.6468 3.36651C12.6468 3.36663 12.6467 3.36633 12.6453 3.36356L11.9745 3.69896ZM12.0368 3.74939L12.1324 3.00551C12.3254 3.03032 12.4982 3.13714 12.6067 3.2986L11.9841 3.71682L11.3615 4.13504C11.4941 4.33238 11.7053 4.46295 11.9412 4.49327L12.0368 3.74939ZM9.76672 2.25V3C10.3595 3 10.477 3.00979 10.5675 3.04099L10.8121 2.33198L11.0566 1.62297C10.6717 1.49021 10.2508 1.5 9.76672 1.5V2.25ZM11.9133 3.57669L12.5842 3.24128C12.3677 2.80832 12.1882 2.42745 11.8973 2.14256L11.3725 2.67837L10.8477 3.21419C10.9161 3.28115 10.9774 3.38188 11.2425 3.9121L11.9133 3.57669ZM10.8121 2.33198L10.5675 3.04099C10.6726 3.07724 10.7683 3.1364 10.8477 3.21419L11.3725 2.67837L11.8973 2.14256C11.6591 1.9092 11.3719 1.73172 11.0566 1.62297L10.8121 2.33198ZM6.08666 3.57669L6.75748 3.9121C7.02259 3.38187 7.08389 3.28115 7.15226 3.21419L6.62747 2.67837L6.10268 2.14256C5.81181 2.42745 5.63232 2.80832 5.41584 3.24128L6.08666 3.57669ZM8.23328 2.25V1.5C7.74922 1.5 7.32829 1.49021 6.94339 1.62297L7.18794 2.33198L7.4325 3.04099C7.52297 3.00979 7.64047 3 8.23328 3V2.25ZM6.62747 2.67837L7.15226 3.21419C7.23168 3.1364 7.3274 3.07724 7.4325 3.04099L7.18794 2.33198L6.94339 1.62297C6.62811 1.73172 6.34095 1.9092 6.10268 2.14256L6.62747 2.67837ZM5.94294 3.75V4.5C5.94464 4.5 5.95894 4.50005 5.97321 4.49971C5.99062 4.49929 6.02125 4.4981 6.05885 4.49326L5.96321 3.74939L5.86757 3.00551C5.90041 3.00129 5.92608 3.00041 5.93712 3.00014C5.94241 3.00001 5.94604 3 5.94624 3C5.94637 3 5.94604 3 5.94294 3V3.75ZM6.02552 3.69896L5.35469 3.36356C5.35331 3.36633 5.35316 3.36663 5.35322 3.36651C5.35331 3.36633 5.35494 3.36309 5.35742 3.35842C5.3626 3.34865 5.37488 3.32608 5.39334 3.29859L6.0159 3.71682L6.63846 4.13505C6.65961 4.10358 6.67438 4.0767 6.68254 4.06132C6.68923 4.0487 6.69558 4.03589 6.69634 4.03436L6.02552 3.69896ZM5.96321 3.74939L6.05885 4.49327C6.29465 4.46295 6.50591 4.33238 6.63848 4.13503L6.0159 3.71682L5.39333 3.29861C5.50179 3.13714 5.67464 3.03031 5.86758 3.00551L5.96321 3.74939ZM7.05 15.75V15C6.19755 15 5.60331 14.9994 5.14068 14.9616C4.6868 14.9245 4.42604 14.8554 4.22852 14.7548L3.88803 15.423L3.54754 16.0913C3.99175 16.3176 4.47189 16.412 5.01853 16.4566C5.55641 16.5006 6.2223 16.5 7.05 16.5V15.75ZM2.25 10.95H1.5C1.5 11.7777 1.49942 12.4436 1.54336 12.9815C1.58803 13.5281 1.68238 14.0082 1.90873 14.4525L2.57698 14.112L3.24524 13.7715C3.1446 13.574 3.07546 13.3132 3.03838 12.8593C3.00058 12.3967 3 11.8025 3 10.95H2.25ZM3.88803 15.423L4.22852 14.7548C3.80516 14.539 3.46095 14.1948 3.24524 13.7715L2.57698 14.112L1.90873 14.4525C2.26825 15.1581 2.84193 15.7317 3.54754 16.0913L3.88803 15.423ZM15.75 10.95H15C15 11.8025 14.9994 12.3967 14.9616 12.8593C14.9245 13.3132 14.8554 13.574 14.7548 13.7715L15.423 14.112L16.0913 14.4525C16.3176 14.0082 16.412 13.5281 16.4566 12.9815C16.5006 12.4436 16.5 11.7777 16.5 10.95H15.75ZM10.95 15.75V16.5C11.7777 16.5 12.4436 16.5006 12.9815 16.4566C13.5281 16.412 14.0082 16.3176 14.4525 16.0913L14.112 15.423L13.7715 14.7548C13.574 14.8554 13.3132 14.9245 12.8593 14.9616C12.3967 14.9994 11.8025 15 10.95 15V15.75ZM15.423 14.112L14.7548 13.7715C14.539 14.1948 14.1948 14.539 13.7715 14.7548L14.112 15.423L14.4525 16.0913C15.1581 15.7317 15.7317 15.1581 16.0913 14.4525L15.423 14.112ZM15.75 7.44294H16.5C16.5 6.83224 16.5031 6.42583 16.4385 6.07343L15.7008 6.20875L14.9631 6.34406C14.9969 6.52844 15 6.7659 15 7.44294H15.75ZM12.0571 3.75V4.5C12.7341 4.5 12.9716 4.5031 13.1559 4.53692L13.2913 3.79923L13.4266 3.06154C13.0742 2.9969 12.6678 3 12.0571 3V3.75ZM15.7008 6.20875L16.4385 6.07343C16.1574 4.54138 14.9586 3.34256 13.4266 3.06154L13.2913 3.79923L13.1559 4.53692C14.0752 4.70553 14.7945 5.42483 14.9631 6.34406L15.7008 6.20875ZM2.25 7.44294H3C3 6.7659 3.0031 6.52844 3.03692 6.34406L2.29923 6.20875L1.56154 6.07343C1.4969 6.42583 1.5 6.83224 1.5 7.44294H2.25ZM5.94294 3.75V3C5.33224 3 4.92583 2.9969 4.57343 3.06154L4.70875 3.79923L4.84406 4.53692C5.02844 4.5031 5.2659 4.5 5.94294 4.5V3.75ZM2.29923 6.20875L3.03692 6.34406C3.20553 5.42483 3.92483 4.70553 4.84406 4.53692L4.70875 3.79923L4.57343 3.06154C3.04138 3.34256 1.84256 4.54138 1.56154 6.07343L2.29923 6.20875ZM12 9.75H11.25C11.25 10.9926 10.2426 12 9 12V12.75V13.5C11.0711 13.5 12.75 11.8211 12.75 9.75H12ZM9 12.75V12C7.75736 12 6.75 10.9926 6.75 9.75H6H5.25C5.25 11.8211 6.92893 13.5 9 13.5V12.75ZM6 9.75H6.75C6.75 8.50736 7.75736 7.5 9 7.5V6.75V6C6.92893 6 5.25 7.67893 5.25 9.75H6ZM9 6.75V7.5C10.2426 7.5 11.25 8.50736 11.25 9.75H12H12.75C12.75 7.67893 11.0711 6 9 6V6.75Z" fill="#262626"/>
</svg>
