<svg width="20" height="20" viewBox="0 0 20 20" fill="none" xmlns="http://www.w3.org/2000/svg">
<path d="M1.6665 6.66536H18.3332M4.99984 13.332H8.33317M11.6665 13.332H14.9998M4.33317 16.6654H15.6665C16.5999 16.6654 17.0666 16.6654 17.4232 16.4837C17.7368 16.3239 17.9917 16.069 18.1515 15.7553C18.3332 15.3988 18.3332 14.9321 18.3332 13.9987V5.9987C18.3332 5.06528 18.3332 4.59857 18.1515 4.24205C17.9917 3.92844 17.7368 3.67348 17.4232 3.51369C17.0666 3.33203 16.5999 3.33203 15.6665 3.33203H4.33317C3.39975 3.33203 2.93304 3.33203 2.57652 3.51369C2.26292 3.67348 2.00795 3.92844 1.84816 4.24205C1.6665 4.59857 1.6665 5.06528 1.6665 5.9987V13.9987C1.6665 14.9321 1.6665 15.3988 1.84816 15.7553C2.00795 16.069 2.26292 16.3239 2.57652 16.4837C2.93304 16.6654 3.39975 16.6654 4.33317 16.6654Z" stroke="#262626" stroke-width="1.5" stroke-linecap="round"/>
</svg>
