<svg width="20" height="20" viewBox="0 0 20 20" fill="none" xmlns="http://www.w3.org/2000/svg">
<path d="M6.00016 18.3346V17.5846H6.00016L6.00016 18.3346ZM14.0002 18.3346V19.0846V18.3346ZM16.6668 15.668H15.9168H16.6668ZM16.6668 4.33464H17.4168H16.6668ZM16.4852 2.57798L17.1534 2.23749V2.23749L16.4852 2.57798ZM14.0002 1.66797V0.917969V1.66797ZM15.7568 1.84962L16.0973 1.18137L16.0973 1.18137L15.7568 1.84962ZM15.7568 18.153L16.0973 18.8212L15.7568 18.153ZM16.4852 17.4246L15.8169 17.0841L16.4852 17.4246ZM4.24351 18.153L4.58401 17.4847L4.24351 18.153ZM3.3335 15.668H2.5835H3.3335ZM3.51515 17.4246L4.18341 17.0841L4.18341 17.0841L3.51515 17.4246ZM4.0835 6.66797C4.0835 6.25376 3.74771 5.91797 3.3335 5.91797C2.91928 5.91797 2.5835 6.25376 2.5835 6.66797L3.3335 6.66797H4.0835ZM8.3335 0.917969C7.91928 0.917969 7.5835 1.25376 7.5835 1.66797C7.5835 2.08218 7.91928 2.41797 8.3335 2.41797V1.66797V0.917969ZM3.47576 6.52571L2.94543 5.99538L3.47576 6.52571ZM8.19124 1.81023L8.72157 2.34056L8.19124 1.81023ZM3.53468 6.66797L3.53468 7.41797L3.53468 6.66797ZM7.50016 6.66797L7.50016 5.91797L7.50016 6.66797ZM8.3335 5.83464H7.5835H8.3335ZM8.3335 1.86915H9.0835V1.86915L8.3335 1.86915ZM6.66683 9.2513C6.25262 9.2513 5.91683 9.58709 5.91683 10.0013C5.91683 10.4155 6.25262 10.7513 6.66683 10.7513V10.0013V9.2513ZM13.3335 10.7513C13.7477 10.7513 14.0835 10.4155 14.0835 10.0013C14.0835 9.58709 13.7477 9.2513 13.3335 9.2513V10.0013V10.7513ZM11.6668 5.91797C11.2526 5.91797 10.9168 6.25376 10.9168 6.66797C10.9168 7.08218 11.2526 7.41797 11.6668 7.41797V6.66797V5.91797ZM13.3335 7.41797C13.7477 7.41797 14.0835 7.08218 14.0835 6.66797C14.0835 6.25376 13.7477 5.91797 13.3335 5.91797V6.66797V7.41797ZM6.66683 12.5846C6.25262 12.5846 5.91683 12.9204 5.91683 13.3346C5.91683 13.7488 6.25262 14.0846 6.66683 14.0846V13.3346V12.5846ZM13.3335 14.0846C13.7477 14.0846 14.0835 13.7488 14.0835 13.3346C14.0835 12.9204 13.7477 12.5846 13.3335 12.5846V13.3346V14.0846ZM6.00016 18.3346V19.0846H14.0002V18.3346V17.5846H6.00016V18.3346ZM16.6668 15.668H17.4168V4.33464H16.6668H15.9168V15.668H16.6668ZM16.6668 4.33464H17.4168C17.4168 3.8803 17.4174 3.49444 17.3916 3.1789C17.3651 2.8546 17.3071 2.5391 17.1534 2.23749L16.4852 2.57798L15.8169 2.91848C15.8449 2.97339 15.8777 3.06951 15.8966 3.30105C15.9162 3.54134 15.9168 3.85555 15.9168 4.33464L16.6668 4.33464ZM14.0002 1.66797V2.41797C14.4792 2.41797 14.7935 2.41855 15.0338 2.43818C15.2653 2.4571 15.3614 2.4899 15.4163 2.51788L15.7568 1.84962L16.0973 1.18137C15.7957 1.02769 15.4802 0.969663 15.1559 0.943166C14.8404 0.917385 14.4545 0.917969 14.0002 0.917969V1.66797ZM16.4852 2.57798L17.1534 2.23749C16.9217 1.78276 16.552 1.41306 16.0973 1.18137L15.7568 1.84962L15.4163 2.51788C15.5888 2.60576 15.729 2.746 15.8169 2.91848L16.4852 2.57798ZM14.0002 18.3346V19.0846C14.4545 19.0846 14.8404 19.0852 15.1559 19.0594C15.4802 19.0329 15.7957 18.9749 16.0973 18.8212L15.7568 18.153L15.4163 17.4847C15.3614 17.5127 15.2653 17.5455 15.0338 17.5644C14.7935 17.5841 14.4792 17.5846 14.0002 17.5846V18.3346ZM16.6668 15.668H15.9168C15.9168 16.1471 15.9162 16.4613 15.8966 16.7016C15.8777 16.9331 15.8449 17.0292 15.8169 17.0841L16.4852 17.4246L17.1534 17.7651C17.3071 17.4635 17.3651 17.148 17.3916 16.8237C17.4174 16.5082 17.4168 16.1223 17.4168 15.668H16.6668ZM15.7568 18.153L16.0973 18.8212C16.552 18.5895 16.9217 18.2198 17.1534 17.7651L16.4852 17.4246L15.8169 17.0841C15.729 17.2566 15.5888 17.3968 15.4163 17.4847L15.7568 18.153ZM6.00016 18.3346L6.00016 17.5846C5.52108 17.5846 5.20687 17.5841 4.96657 17.5644C4.73503 17.5455 4.63891 17.5127 4.58401 17.4847L4.24351 18.153L3.90302 18.8212C4.20463 18.9749 4.52013 19.0329 4.84443 19.0594C5.15997 19.0852 5.54583 19.0846 6.00016 19.0846V18.3346ZM3.3335 15.668H2.5835C2.5835 16.1223 2.58291 16.5082 2.60869 16.8237C2.63519 17.148 2.69322 17.4635 2.8469 17.7651L3.51515 17.4246L4.18341 17.0841C4.15543 17.0292 4.12263 16.9331 4.10371 16.7016C4.08408 16.4613 4.0835 16.1471 4.0835 15.668H3.3335ZM4.24351 18.153L4.58401 17.4847C4.41152 17.3968 4.27129 17.2566 4.18341 17.0841L3.51515 17.4246L2.8469 17.7651C3.07859 18.2198 3.44829 18.5895 3.90302 18.8212L4.24351 18.153ZM3.3335 6.66797L2.5835 6.66797L2.5835 15.668H3.3335H4.0835L4.0835 6.66797H3.3335ZM14.0002 1.66797V0.917969L8.3335 0.917969V1.66797V2.41797L14.0002 2.41797V1.66797ZM3.47576 6.52571L4.00609 7.05604L8.72157 2.34056L8.19124 1.81023L7.66091 1.2799L2.94543 5.99538L3.47576 6.52571ZM3.53468 6.66797L3.53468 7.41797L7.50016 7.41797V6.66797L7.50016 5.91797L3.53468 5.91797L3.53468 6.66797ZM8.3335 5.83464H9.0835V1.86915H8.3335H7.5835V5.83464H8.3335ZM7.50016 6.66797V7.41797C8.37462 7.41797 9.0835 6.70909 9.0835 5.83464L8.3335 5.83464H7.5835C7.5835 5.88066 7.54619 5.91797 7.50016 5.91797L7.50016 6.66797ZM8.19124 1.81023L8.72157 2.34056C8.30159 2.76053 7.5835 2.46309 7.5835 1.86915L8.3335 1.86915L9.0835 1.86915C9.0835 1.12673 8.18588 0.75493 7.66091 1.2799L8.19124 1.81023ZM3.47576 6.52571L2.94543 5.99538C2.42045 6.52035 2.79226 7.41797 3.53468 7.41797L3.53468 6.66797L3.53468 5.91797C4.12862 5.91797 4.42606 6.63606 4.00609 7.05604L3.47576 6.52571ZM6.66683 10.0013V10.7513H13.3335V10.0013V9.2513H6.66683V10.0013ZM11.6668 6.66797V7.41797H13.3335V6.66797V5.91797H11.6668V6.66797ZM6.66683 13.3346V14.0846H13.3335V13.3346V12.5846H6.66683V13.3346Z" fill="#262626"/>
</svg>
