<svg width="14" height="14" viewBox="0 0 14 14" fill="none" xmlns="http://www.w3.org/2000/svg">
<path d="M7.21883 6.78078L7.21883 7.21828M6.78133 6.78078L6.78133 7.21828M7.21883 2.69745L7.21883 3.13495M6.78133 2.69745L6.78133 3.13495M7.21883 10.8641L7.21883 11.3016M6.78133 10.8641L6.78133 11.3016M7.00004 7.58301C6.67787 7.58301 6.41671 7.32184 6.41671 6.99968C6.41671 6.67751 6.67787 6.41634 7.00004 6.41634C7.32221 6.41634 7.58337 6.67751 7.58337 6.99968C7.58337 7.32184 7.32221 7.58301 7.00004 7.58301ZM7.00004 3.49968C6.67787 3.49968 6.41671 3.23851 6.41671 2.91634C6.41671 2.59418 6.67787 2.33301 7.00004 2.33301C7.32221 2.33301 7.58337 2.59418 7.58337 2.91634C7.58337 3.23851 7.32221 3.49968 7.00004 3.49968ZM7.00004 11.6663C6.67787 11.6663 6.41671 11.4052 6.41671 11.083C6.41671 10.7608 6.67787 10.4997 7.00004 10.4997C7.32221 10.4997 7.58337 10.7608 7.58337 11.083C7.58337 11.4052 7.32221 11.6663 7.00004 11.6663Z" stroke="#8C8C8C" stroke-width="1.5" stroke-linecap="round"/>
</svg>
