<svg width="17" height="17" viewBox="0 0 17 17" fill="none" xmlns="http://www.w3.org/2000/svg">
<circle cx="8.5" cy="8.5" r="8.5" fill="#FEE500"/>
<path d="M8.52428 4.10156C5.87975 4.10156 3.74707 5.80769 3.74707 7.87895C3.74707 9.2234 4.63427 10.4006 5.96506 11.0729L5.51464 12.7551C5.50615 12.7803 5.50484 12.8074 5.51087 12.8333C5.51689 12.8592 5.53001 12.883 5.54876 12.9018C5.5761 12.9259 5.61127 12.9393 5.64772 12.9394C5.67794 12.9369 5.70661 12.925 5.72961 12.9053L7.6678 11.5984C7.9539 11.6379 8.2423 11.6583 8.53111 11.6598C11.1722 11.6598 13.3083 9.95363 13.3083 7.87895C13.3083 5.80428 11.1654 4.10156 8.52428 4.10156Z" fill="#392020"/>
</svg>
