<svg width="32" height="14" viewBox="0 0 32 14" fill="none" xmlns="http://www.w3.org/2000/svg">
<path fill-rule="evenodd" clip-rule="evenodd" d="M25.0592 13.1942H6.59712C2.95393 13.1942 0 10.2403 0 6.59712C0 2.95393 2.95393 0 6.59712 0H25.0756C28.7188 0 31.6727 2.95393 31.6727 6.59712C31.6727 10.2403 28.7024 13.1942 25.0592 13.1942Z" fill="#FFEB00"/>
<path fill-rule="evenodd" clip-rule="evenodd" d="M7.40108 3.16699C5.41538 3.16699 3.80713 4.43062 3.80713 6.00605C3.80713 7.00711 4.47997 7.89329 5.48102 8.40202L5.1364 9.68206C5.11999 9.71488 5.1364 9.76411 5.16922 9.79693C5.18563 9.81334 5.21845 9.82975 5.23486 9.82975C5.25127 9.82975 5.2841 9.81334 5.30051 9.81334L6.76106 8.8287C6.9744 8.86152 7.18774 8.87793 7.41749 8.87793C9.40319 8.87793 11.0114 7.59789 11.0114 6.03887C11.0114 4.43062 9.40319 3.16699 7.40108 3.16699Z" fill="black"/>
<path d="M14.0477 8.36858V10.2066H12.7349V3.42895H13.6539L13.818 3.85563C14.097 3.57664 14.5236 3.28125 15.1965 3.28125C16.4765 3.28125 17.0837 4.23307 17.0837 5.79209C17.0837 7.41676 16.1483 8.45063 14.8026 8.45063C14.54 8.46704 14.3431 8.45063 14.0477 8.36858ZM14.0477 4.52847V7.44958C14.1134 7.46599 14.2939 7.4824 14.4744 7.4824C15.4098 7.4824 15.7709 6.82597 15.7709 5.79209C15.7709 4.8895 15.5247 4.34795 14.7862 4.34795C14.5236 4.34795 14.2611 4.41359 14.0477 4.52847Z" fill="black"/>
<path d="M19.9221 5.35036H20.6606V5.18625C20.6606 4.6447 20.3488 4.39854 19.8237 4.39854C19.4134 4.39854 18.9047 4.51341 18.478 4.72675L18.117 3.85698C18.5765 3.52877 19.2985 3.31543 19.9385 3.31543C21.1858 3.31543 21.875 3.97186 21.875 5.23549V8.33712H20.956L20.8247 7.92685C20.2996 8.30429 19.8073 8.4684 19.3806 8.4684C18.4288 8.4684 17.8872 7.89403 17.8872 6.92579C17.8872 5.89192 18.5929 5.35036 19.9221 5.35036ZM20.677 7.07349V6.1709H20.0698C19.397 6.1709 19.0524 6.41706 19.0524 6.89297C19.0524 7.25401 19.2329 7.43453 19.6267 7.43453C19.9878 7.45094 20.4473 7.27042 20.677 7.07349Z" fill="black"/>
<path d="M25.8468 7.82762C25.3873 9.04201 24.8457 9.92819 24.0416 10.4205L23.2375 9.68203C23.697 9.27177 24.0416 8.87791 24.3206 8.35276L22.5811 3.61006L23.8775 3.26543L24.9934 7.10555L26.093 3.24902L27.373 3.61006L25.8468 7.82762Z" fill="black"/>
</svg>
