<svg width="68" height="32" viewBox="0 0 68 32" fill="none" xmlns="http://www.w3.org/2000/svg">
<path d="M9.09394 10.5263V24.947C9.09394 25.9068 9.14192 26.7226 9.2379 27.3865C9.33388 28.0503 9.53384 28.5942 9.82977 29.0181C10.1257 29.442 10.5336 29.7379 11.0535 29.9219C11.5734 30.1059 12.2372 30.2018 13.053 30.2018H13.7169V30.6097H0V30.2018H0.551875C1.36769 30.2018 2.02354 30.1059 2.52743 29.9219C3.03131 29.7379 3.42322 29.434 3.71116 29.0181C3.99909 28.6022 4.18305 28.0583 4.28703 27.3865C4.38301 26.7226 4.43899 25.9068 4.43899 24.947V10.5263H0.479891V9.89444H4.43899V8.67072C4.43899 7.19105 4.72693 5.79937 5.31079 4.49567C5.88666 3.19196 6.73447 2.1442 7.84622 1.35238C9.06994 0.568557 10.3816 0.128657 11.7733 0.0246801C13.165 -0.0712981 14.3647 0.11266 15.3805 0.576555C16.2443 0.99246 16.7402 1.49635 16.8762 2.07222C17.0121 2.64808 16.9402 3.12798 16.6522 3.51189C16.3723 3.8958 15.9644 4.09576 15.4285 4.11975C14.9006 4.14375 14.3887 3.81582 13.8928 3.11998C13.181 2.1602 12.4212 1.50434 11.6214 1.16042C10.8215 0.8165 10.1337 0.880486 9.56583 1.34438C9.2459 1.61632 9.04595 1.94424 8.95797 2.32016C8.86999 2.70407 8.83 3.19196 8.84599 3.78383C8.85399 4.37569 8.90198 5.09553 8.97396 5.94334C9.04595 6.79114 9.08594 7.80691 9.08594 8.99065V9.87844H14.1488V10.5103H9.08594L9.09394 10.5263Z" fill="#133A1B"/>
<path d="M37.8078 9.89444H39.5114V24.3552C39.5114 25.3869 39.5914 26.2667 39.7513 26.9786C39.9113 27.6984 40.1352 28.2663 40.4312 28.6982C40.7271 29.1301 41.087 29.434 41.5029 29.626C41.9188 29.8099 42.3747 29.9059 42.8706 29.9059C43.4625 29.9059 44.0144 29.7619 44.5342 29.458C45.0541 29.1621 45.502 28.7542 45.8859 28.2343C46.2698 27.7144 46.5738 27.1065 46.8137 26.4027C47.0457 25.6989 47.1656 24.915 47.1656 24.0592V15.5891C47.1656 14.5814 47.1096 13.7976 46.9977 13.2457C46.8857 12.6938 46.7337 12.2859 46.5338 12.046C46.3338 11.806 46.0859 11.67 45.774 11.662C45.462 11.646 45.1101 11.678 44.7182 11.758L44.1663 11.87V11.4621L50.117 9.91044H51.8206V24.963C51.8206 26.7866 52.0205 28.0183 52.4284 28.6582C52.8364 29.298 53.4602 29.546 54.292 29.394L54.476 29.322L54.6599 29.282L55.6597 29.0261V29.466L51.8126 30.6097H49.5171C48.8533 30.5378 48.3334 30.2258 47.9655 29.6819C47.5975 29.1381 47.3336 28.2663 47.1896 27.0585C46.7737 28.2423 46.1099 29.1861 45.2141 29.8899C44.3103 30.5937 43.2945 31.0176 42.1668 31.1696C41.135 31.3376 40.1672 31.3376 39.2794 31.1536C38.3916 30.9697 37.6158 30.6097 36.952 30.0819C36.2881 29.554 35.7682 28.8501 35.4003 27.9703C35.0324 27.0985 34.8484 26.0588 34.8484 24.843V14.7893C34.8244 14.0775 34.7685 13.4936 34.6805 13.0537C34.5925 12.6138 34.4565 12.2779 34.2566 12.0539C34.0566 11.83 33.8007 11.694 33.4807 11.646C33.1608 11.5981 32.7449 11.6061 32.225 11.686L31.1133 11.87V11.4621L37.8078 9.91044V9.89444Z" fill="#133A1B"/>
<path d="M61.8977 2.64819V9.89455H68.0003V10.5264H61.8977V22.5797C61.8977 23.9074 61.8657 25.0271 61.8097 25.9229C61.7458 26.8187 61.7058 27.5625 61.6818 28.1384C61.6578 28.7143 61.6658 29.1622 61.7218 29.4661C61.7778 29.77 61.9217 29.994 62.1617 30.114C62.3856 30.2419 62.6016 30.2579 62.8095 30.1699C63.0175 30.082 63.2414 29.922 63.4734 29.6901C63.7053 29.4581 63.9453 29.1782 64.1932 28.8582C64.4412 28.5383 64.6971 28.1944 64.969 27.8265C65.313 27.3626 65.7049 27.1306 66.1368 27.1386C66.5687 27.1546 66.9206 27.3146 67.1925 27.6185C67.4645 27.9305 67.6084 28.3304 67.6164 28.8183C67.6244 29.3141 67.3765 29.794 66.8566 30.2579C66.4887 30.5779 66.0568 30.8098 65.5609 30.9618C65.065 31.1057 64.5611 31.1937 64.0412 31.2177C63.5214 31.2417 63.0095 31.2017 62.4896 31.0897C61.9697 30.9778 61.5138 30.8098 61.1219 30.5938C60.4581 30.2499 59.8742 29.81 59.3863 29.2821C58.8904 28.7543 58.4905 28.1704 58.1626 27.5465C57.8426 26.9147 57.6107 26.2668 57.4587 25.587C57.3148 24.9071 57.2348 24.2353 57.2348 23.5714V10.5264H53.6836V9.89455H54.0515C54.7394 9.89455 55.4752 9.77458 56.251 9.54263C57.0268 9.31068 57.7627 8.91077 58.4505 8.3589C59.1384 7.80702 59.7462 7.06319 60.2661 6.1434C60.786 5.21561 61.1139 4.05587 61.2659 2.64819H61.8977Z" fill="#133A1B"/>
<path d="M22.8268 19.9882V25.4989C22.8508 27.1785 23.0987 28.3702 23.5626 29.0821C24.0265 29.7939 24.8663 30.1698 26.074 30.1938H26.4419V30.6017H14.3887V30.1938H14.5326C15.3485 30.1938 16.0123 30.0979 16.5322 29.9139C17.0521 29.7299 17.444 29.426 17.7159 29.0101C17.9879 28.5942 18.1718 28.0503 18.2678 27.3785C18.3638 26.7146 18.4118 25.8988 18.4118 24.939V15.6211C18.3878 14.8853 18.3238 14.2615 18.2278 13.7736C18.1318 13.2777 17.9719 12.8858 17.7479 12.5898C17.524 12.2939 17.228 12.1099 16.8601 12.038C16.4922 11.966 16.0203 11.99 15.4524 12.1099L14.4926 12.3659V11.958L21.4831 9.88644H22.2589C22.3549 10.4303 22.4508 11.0542 22.5388 11.774C22.6268 12.4939 22.6908 13.2617 22.7388 14.1015" fill="#133A1B"/>
<path d="M27.4664 13.4056C26.5066 13.8695 23.4033 13.7416 23.4033 13.7416C23.4033 13.7416 25.2029 11.2061 26.1627 10.7422C27.1225 10.2783 29.6499 10.6863 29.6499 10.6863C29.6499 10.6863 28.4182 12.9417 27.4664 13.4056Z" fill="#133A1B"/>
</svg>
