<svg width="72" height="33" viewBox="0 0 72 33" fill="none" xmlns="http://www.w3.org/2000/svg">
<path d="M9.54132 11.0441V26.1743C9.54132 27.1813 9.59167 28.0373 9.69237 28.7338C9.79307 29.4303 10.0029 30.0009 10.3133 30.4457C10.6238 30.8904 11.0518 31.2009 11.5973 31.3939C12.1427 31.5869 12.8392 31.6876 13.6952 31.6876H14.3917V32.1156H0V31.6876H0.579024C1.43497 31.6876 2.12309 31.5869 2.65176 31.3939C3.18044 31.2009 3.59163 30.882 3.89373 30.4457C4.19583 30.0093 4.38884 29.4387 4.49793 28.7338C4.59863 28.0373 4.65737 27.1813 4.65737 26.1743V11.0441H0.5035V10.3812H4.65737V9.09728C4.65737 7.54482 4.95947 6.08467 5.57206 4.71683C6.17626 3.34899 7.06578 2.24968 8.23222 1.41891C9.51614 0.596527 10.8924 0.134986 12.3525 0.0258943C13.8127 -0.0748056 15.0714 0.118203 16.1372 0.604919C17.0435 1.04128 17.5637 1.56996 17.7064 2.17416C17.8491 2.77836 17.7735 3.28186 17.4714 3.68466C17.1777 4.08746 16.7498 4.29725 16.1875 4.32242C15.6337 4.3476 15.0966 4.00354 14.5763 3.27347C13.8295 2.26647 13.0322 1.57835 12.1931 1.21751C11.3539 0.856668 10.6322 0.923802 10.0364 1.41052C9.70076 1.69583 9.49096 2.03989 9.39866 2.4343C9.30635 2.8371 9.26439 3.34899 9.28117 3.96997C9.28957 4.59096 9.33992 5.34621 9.41544 6.23572C9.49097 7.12524 9.53292 8.19098 9.53292 9.43294V10.3644H14.8448V11.0274H9.53292L9.54132 11.0441Z" fill="#133A1B"/>
<path d="M39.6674 10.3812H41.4548V25.5533C41.4548 26.6359 41.5387 27.559 41.7065 28.3058C41.8744 29.0611 42.1093 29.6569 42.4198 30.11C42.7303 30.5632 43.108 30.882 43.5443 31.0834C43.9807 31.2765 44.459 31.3772 44.9793 31.3772C45.6003 31.3772 46.1793 31.2261 46.7248 30.9072C47.2702 30.5967 47.7401 30.1688 48.1429 29.6233C48.5457 29.0778 48.8646 28.4401 49.1164 27.7016C49.3597 26.9631 49.4856 26.1408 49.4856 25.2429V16.3561C49.4856 15.2987 49.4269 14.4764 49.3094 13.8973C49.1919 13.3183 49.0325 12.8903 48.8227 12.6386C48.6129 12.3868 48.3527 12.2442 48.0255 12.2358C47.6982 12.219 47.329 12.2526 46.9178 12.3365L46.3387 12.454V12.026L52.5821 10.398H54.3696V26.1911C54.3696 28.1044 54.5793 29.3967 55.0073 30.0681C55.4353 30.7394 56.0898 30.9995 56.9626 30.8401L57.1556 30.7646L57.3486 30.7226L58.3975 30.4541V30.9156L54.3612 32.1156H51.9528C51.2563 32.0401 50.7108 31.7128 50.3248 31.1422C49.9388 30.5716 49.6618 29.6569 49.5108 28.3897C49.0744 29.6317 48.3779 30.6219 47.438 31.3604C46.4898 32.0988 45.424 32.5436 44.2408 32.703C43.1583 32.8793 42.1429 32.8793 41.2114 32.6863C40.28 32.4932 39.466 32.1156 38.7695 31.5618C38.073 31.0079 37.5275 30.2695 37.1415 29.3464C36.7555 28.4317 36.5625 27.3408 36.5625 26.0652V15.5169C36.5373 14.7701 36.4785 14.1575 36.3862 13.6959C36.2939 13.2344 36.1513 12.8819 35.9415 12.647C35.7317 12.412 35.4632 12.2693 35.1275 12.219C34.7918 12.1686 34.3555 12.177 33.81 12.261L32.6436 12.454V12.026L39.6674 10.398V10.3812Z" fill="#133A1B"/>
<path d="M64.9424 2.77844V10.3813H71.3453V11.0442H64.9424V23.6905C64.9424 25.0835 64.9089 26.2583 64.8501 27.1982C64.783 28.138 64.7411 28.9185 64.7159 29.5227C64.6907 30.1269 64.6991 30.5968 64.7578 30.9157C64.8166 31.2346 64.9676 31.4695 65.2194 31.5954C65.4543 31.7297 65.6809 31.7464 65.8991 31.6541C66.1173 31.5618 66.3522 31.394 66.5956 31.1506C66.839 30.9073 67.0907 30.6136 67.3509 30.2779C67.611 29.9422 67.8795 29.5814 68.1648 29.1954C68.5257 28.7087 68.9369 28.4653 69.39 28.4737C69.8432 28.4905 70.2124 28.6583 70.4977 28.9772C70.783 29.3045 70.9341 29.7241 70.9425 30.2359C70.9509 30.7562 70.6907 31.2597 70.1453 31.7464C69.7593 32.0821 69.3061 32.3255 68.7858 32.4849C68.2655 32.636 67.7369 32.7283 67.1914 32.7534C66.646 32.7786 66.1089 32.7367 65.5634 32.6192C65.018 32.5017 64.5396 32.3255 64.1285 32.0989C63.4319 31.7381 62.8194 31.2765 62.3075 30.7227C61.7872 30.1688 61.3676 29.5562 61.0235 28.9017C60.6879 28.2387 60.4445 27.559 60.2851 26.8457C60.134 26.1324 60.0501 25.4275 60.0501 24.731V11.0442H56.3242V10.3813H56.7102C57.4319 10.3813 58.2039 10.2554 59.0179 10.0121C59.8319 9.76869 60.604 9.34911 61.3256 8.77009C62.0473 8.19106 62.6851 7.41064 63.2305 6.4456C63.776 5.47216 64.1201 4.25537 64.2795 2.77844H64.9424Z" fill="#133A1B"/>
<path d="M23.9499 20.9715V26.7533C23.9751 28.5156 24.2352 29.7659 24.7219 30.5128C25.2086 31.2596 26.0898 31.654 27.3569 31.6792H27.7429V32.1072H15.0967V31.6792H15.2477C16.1037 31.6792 16.8002 31.5785 17.3456 31.3855C17.8911 31.1925 18.3023 30.8736 18.5876 30.4373C18.8729 30.0009 19.0659 29.4303 19.1666 28.7254C19.2673 28.0289 19.3177 27.1729 19.3177 26.1659V16.3896C19.2925 15.6176 19.2254 14.963 19.1247 14.4511C19.024 13.9309 18.8561 13.5197 18.6212 13.2092C18.3862 12.8987 18.0757 12.7057 17.6897 12.6302C17.3037 12.5546 16.8086 12.5798 16.2128 12.7057L15.2058 12.9742V12.5462L22.5401 10.3728H23.3541C23.4548 10.9434 23.5555 11.598 23.6478 12.3532C23.7401 13.1085 23.8072 13.9141 23.8576 14.7952" fill="#133A1B"/>
<path d="M28.8176 14.0652C27.8107 14.5519 24.5547 14.4176 24.5547 14.4176C24.5547 14.4176 26.4428 11.7575 27.4498 11.2708C28.4568 10.784 31.1086 11.212 31.1086 11.212C31.1086 11.212 29.8163 13.5785 28.8176 14.0652Z" fill="#133A1B"/>
</svg>
