<svg width="32" height="14" viewBox="0 0 32 14" fill="none" xmlns="http://www.w3.org/2000/svg">
<path fill-rule="evenodd" clip-rule="evenodd" d="M25.0592 13.1942H6.59712C2.95393 13.1942 0 10.2403 0 6.59712C0 2.95393 2.95393 0 6.59712 0H25.0756C28.7188 0 31.6727 2.95393 31.6727 6.59712C31.6727 10.2403 28.7024 13.1942 25.0592 13.1942Z" fill="#00DE5A"/>
<path d="M26.7744 4.4167L25.6413 6.9988L24.3585 4.4167H23.3725L25.1926 7.99903L24.4432 9.67188H25.4007L27.7343 4.4167H26.7744ZM22.8265 8.40893H21.8896V8.03622C21.5493 8.33552 21.1098 8.49744 20.6567 8.49044C19.5354 8.49044 18.6586 7.57804 18.6586 6.41242C18.6586 5.2468 19.5354 4.33519 20.6567 4.33519C21.1098 4.32819 21.5493 4.49011 21.8896 4.78941V4.4167H22.8265V8.40893ZM21.9996 6.41242C21.9996 5.65987 21.4741 5.08853 20.777 5.08853C20.0798 5.08853 19.5552 5.65987 19.5552 6.41242C19.5552 7.16497 20.0806 7.7371 20.777 7.7371C21.4733 7.7371 21.9996 7.16576 21.9996 6.41559V6.41242ZM14.0024 9.67188H14.9797V8.07024C15.314 8.34814 15.7368 8.4972 16.1715 8.49044C17.2936 8.49044 18.1703 7.57804 18.1703 6.41242C18.1703 5.2468 17.2936 4.33519 16.1715 4.33519C15.7186 4.328 15.2792 4.48996 14.9394 4.78941V4.4167H14.0024V9.67188ZM16.0512 5.08853C16.7483 5.08853 17.2738 5.65987 17.2738 6.41242C17.2738 7.16497 16.7483 7.7371 16.0512 7.7371C15.354 7.7371 14.8294 7.16576 14.8294 6.41242C14.8294 5.65908 15.3548 5.08853 16.0512 5.08853Z" fill="black"/>
<path d="M12.25 6.53468C12.25 7.6151 11.8208 8.65127 11.0568 9.41525C10.2929 10.1792 9.2567 10.6084 8.17628 10.6084C7.09586 10.6084 6.05968 10.1792 5.29571 9.41525C4.53173 8.65127 4.10254 7.6151 4.10254 6.53468C4.10254 5.45425 4.53173 4.41808 5.29571 3.65411C6.05968 2.89013 7.09586 2.46094 8.17628 2.46094C9.2567 2.46094 10.2929 2.89013 11.0568 3.65411C11.8208 4.41808 12.25 5.45425 12.25 6.53468ZM8.85764 4.61967V6.66841L7.43325 4.61967H6.2589V8.44968H7.4926V6.40016L8.91699 8.44968H10.0913V4.61967H8.85764Z" fill="black"/>
</svg>
