<svg width="15" height="15" viewBox="0 0 15 15" fill="none" xmlns="http://www.w3.org/2000/svg">
<path d="M7.5 13.75C10.9518 13.75 13.75 10.9518 13.75 7.5C13.75 4.04822 10.9518 1.25 7.5 1.25C4.04822 1.25 1.25 4.04822 1.25 7.5C1.25 10.9518 4.04822 13.75 7.5 13.75Z" stroke="#595959" stroke-width="1.25" stroke-linecap="round"/>
<path d="M6.7814 9.35614C6.79152 8.10823 7.18615 7.72718 7.85398 7.33662C8.27897 7.08894 8.60277 6.746 8.60277 6.24112C8.60277 5.64097 8.11707 5.26946 7.50995 5.26946C6.96354 5.26946 6.43736 5.58382 6.38677 6.28875H5.29395C5.33442 5.07893 6.30582 4.41211 7.50995 4.41211C8.82538 4.41211 9.70571 5.15514 9.70571 6.24112C9.70571 7.0032 9.3212 7.51761 8.6736 7.88913C8.06648 8.23207 7.83375 8.58453 7.81351 9.35614V9.4133H6.7814V9.35614ZM7.33793 11.4709C6.9433 11.4709 6.60938 11.1661 6.6195 10.7946C6.60938 10.4231 6.9433 10.1182 7.33793 10.1182C7.72244 10.1182 8.05636 10.4231 8.05636 10.7946C8.05636 11.1661 7.72244 11.4709 7.33793 11.4709Z" fill="#595959"/>
</svg>
