<svg width="15" height="15" viewBox="0 0 15 15" fill="none" xmlns="http://www.w3.org/2000/svg">
<path d="M7.21989 1.19275C7.33452 0.960489 7.66572 0.960489 7.78035 1.19275L9.44792 4.57162C9.49344 4.66386 9.58143 4.72778 9.68321 4.74257L13.412 5.2844C13.6683 5.32165 13.7707 5.63664 13.5852 5.81743L10.887 8.44751C10.8134 8.51931 10.7798 8.62274 10.7971 8.72412L11.4341 12.4379C11.4779 12.6931 11.2099 12.8878 10.9807 12.7673L7.64554 11.0139C7.5545 10.966 7.44574 10.966 7.3547 11.0139L4.01955 12.7673C3.79029 12.8878 3.52235 12.6931 3.56613 12.4379L4.20309 8.72412C4.22047 8.62274 4.18687 8.51931 4.11321 8.44751L1.41503 5.81743C1.22955 5.63664 1.3319 5.32165 1.58822 5.2844L5.31702 4.74257C5.41881 4.72778 5.50679 4.66386 5.55231 4.57162L7.21989 1.19275Z" fill="#8C8C8C"/>
</svg>
