<svg width="28" height="28" viewBox="0 0 28 28" fill="none" xmlns="http://www.w3.org/2000/svg">
<path d="M13.4769 2.22654C13.6909 1.79298 14.3091 1.79298 14.5231 2.22654L17.6359 8.53376C17.7209 8.70593 17.8851 8.82526 18.0751 8.85287L25.0355 9.86428C25.514 9.9338 25.705 10.5218 25.3588 10.8593L20.3222 15.7688C20.1847 15.9028 20.122 16.0959 20.1544 16.2851L21.3434 23.2174C21.4252 23.6939 20.925 24.0573 20.497 23.8323L14.2714 20.5593C14.1015 20.47 13.8985 20.47 13.7285 20.5593L7.50294 23.8323C7.07499 24.0573 6.57482 23.6939 6.65655 23.2174L7.84554 16.2851C7.87799 16.0959 7.81526 15.9028 7.67777 15.7688L2.64115 10.8593C2.29493 10.5218 2.48598 9.9338 2.96444 9.86428L9.92488 8.85287C10.1149 8.82526 10.2791 8.70593 10.3641 8.53376L13.4769 2.22654Z" fill="#D9D9D9"/>
</svg>
