<svg width="18" height="18" viewBox="0 0 18 18" fill="none" xmlns="http://www.w3.org/2000/svg">
<path d="M8.66372 1.43169C8.80127 1.15298 9.19872 1.15298 9.33627 1.43169L11.3374 5.48634C11.392 5.59702 11.4976 5.67373 11.6197 5.69148L16.0943 6.34167C16.4019 6.38637 16.5247 6.76436 16.3021 6.98131L13.0643 10.1374C12.9759 10.2236 12.9356 10.3477 12.9564 10.4693L13.7208 14.9258C13.7733 15.2322 13.4518 15.4658 13.1767 15.3211L9.1745 13.2171C9.06525 13.1596 8.93474 13.1596 8.82549 13.2171L4.82332 15.3211C4.54821 15.4658 4.22667 15.2322 4.27921 14.9258L5.04356 10.4693C5.06442 10.3477 5.02409 10.2236 4.93571 10.1374L1.69788 6.98131C1.47532 6.76436 1.59813 6.38637 1.90571 6.34167L6.38028 5.69148C6.50242 5.67373 6.60801 5.59702 6.66263 5.48634L8.66372 1.43169Z" fill="#D9D9D9"/>
</svg>
