<svg width="40" height="40" viewBox="0 0 40 40" fill="none" xmlns="http://www.w3.org/2000/svg">
<circle cx="20" cy="20" r="20" fill="#FEE500"/>
<path d="M20.0579 9.65259C13.8355 9.65259 8.81738 13.667 8.81738 18.5406C8.81738 21.704 10.9049 24.4739 14.0362 26.0556L12.9764 30.0139C12.9564 30.0733 12.9533 30.1369 12.9675 30.1979C12.9817 30.2589 13.0125 30.3147 13.0567 30.3591C13.121 30.4158 13.2037 30.4472 13.2895 30.4474C13.3606 30.4417 13.4281 30.4136 13.4822 30.3672L18.0426 27.2921C18.7158 27.385 19.3944 27.4333 20.0739 27.4366C26.2883 27.4366 31.3144 23.4222 31.3144 18.5406C31.3144 13.659 26.2723 9.65259 20.0579 9.65259Z" fill="#392020"/>
<path d="M12.7511 17.1355H11.5226C11.3704 17.1399 11.22 17.1009 11.0891 17.0231C11.0309 16.9866 10.981 16.9386 10.9423 16.8819C10.9036 16.8253 10.877 16.7612 10.8643 16.6938C10.8604 16.6511 10.8604 16.6082 10.8643 16.5655C10.8604 16.4855 10.876 16.4058 10.9095 16.3331C10.943 16.2604 10.9936 16.1969 11.0569 16.1479C11.1969 16.0466 11.3659 15.993 11.5387 15.9953H15.24C15.3935 15.9899 15.5449 16.032 15.6736 16.1158C15.7331 16.1506 15.7841 16.1982 15.823 16.2552C15.8619 16.3121 15.8876 16.3769 15.8984 16.445C15.9023 16.485 15.9023 16.5254 15.8984 16.5655C15.9022 16.6466 15.8867 16.7274 15.8532 16.8014C15.8197 16.8753 15.7692 16.9403 15.7057 16.9909C15.5691 17.0922 15.4018 17.1433 15.232 17.1355H14.0437V21.3587C14.0485 21.4487 14.0346 21.5386 14.0028 21.6229C13.971 21.7072 13.9221 21.7841 13.859 21.8485C13.7986 21.91 13.7259 21.9583 13.6457 21.9901C13.5655 22.0219 13.4796 22.0365 13.3934 22.0331C13.2426 22.0374 13.095 21.9892 12.9759 21.8967C12.8624 21.8063 12.7855 21.6779 12.7591 21.5353C12.7511 21.4767 12.7511 21.4173 12.7591 21.3587L12.7511 17.1355Z" fill="#FEE500"/>
<path d="M16.2529 16.3085C16.2883 16.1763 16.3712 16.0619 16.4858 15.9873C16.6079 15.9181 16.747 15.8847 16.8872 15.8909H17.1923C17.3411 15.8856 17.4884 15.9217 17.6179 15.9953C17.755 16.0875 17.8525 16.228 17.8908 16.3887L19.4966 20.9251C19.5383 21.0434 19.5731 21.1641 19.601 21.2865C19.6037 21.3373 19.6037 21.3881 19.601 21.439C19.6037 21.5172 19.5893 21.5951 19.5588 21.6672C19.5283 21.7393 19.4824 21.8039 19.4244 21.8565C19.3681 21.9141 19.3006 21.9596 19.226 21.99C19.1514 22.0204 19.0713 22.035 18.9908 22.0331C18.867 22.0454 18.7426 22.0157 18.6377 21.9487C18.5329 21.8817 18.4536 21.7813 18.4127 21.6638L18.0755 20.6762H15.9639L15.6267 21.6638C15.5868 21.7837 15.5066 21.886 15.3997 21.9533C15.2928 22.0207 15.1659 22.0488 15.0406 22.0331C14.9048 22.0366 14.7718 21.9942 14.6632 21.9126C14.5574 21.8285 14.486 21.7086 14.4625 21.5755C14.4582 21.5301 14.4582 21.4844 14.4625 21.439C14.4487 21.3593 14.4487 21.2778 14.4625 21.1981C14.4625 21.1098 14.5187 21.0134 14.5508 20.9251L16.2529 16.3085ZM17.0558 17.3603L16.2931 19.769H17.8105L17.0558 17.3603Z" fill="#FEE500"/>
<path d="M19.7849 16.5656C19.7767 16.3854 19.8402 16.2093 19.9615 16.0758C20.0232 16.0136 20.0972 15.965 20.1788 15.9332C20.2604 15.9014 20.3477 15.887 20.4352 15.891C20.5856 15.8893 20.7324 15.9373 20.8527 16.0276C20.9642 16.1218 21.0383 16.2528 21.0615 16.3969C21.0694 16.4528 21.0694 16.5096 21.0615 16.5656V20.7888H23.2694C23.4225 20.7868 23.5729 20.8285 23.703 20.9091C23.7614 20.9452 23.8117 20.9932 23.8504 21.0499C23.8891 21.1066 23.9155 21.1708 23.9278 21.2383C23.9278 21.2383 23.9278 21.3187 23.9278 21.3588C23.9316 21.4388 23.9161 21.5184 23.8826 21.5911C23.849 21.6638 23.7984 21.7273 23.7351 21.7763C23.5951 21.8777 23.4262 21.9311 23.2534 21.9288H20.5396C20.3668 21.9399 20.195 21.895 20.0498 21.8004C19.92 21.7034 19.8335 21.5592 19.809 21.399C19.8031 21.3108 19.8031 21.2222 19.809 21.134L19.7849 16.5656Z" fill="#FEE500"/>
<path d="M24.0727 16.5656C24.0679 16.3859 24.1309 16.2111 24.2493 16.0758C24.3696 15.9665 24.524 15.9019 24.6864 15.8931C24.8487 15.8844 25.0091 15.9319 25.1405 16.0276C25.2545 16.121 25.3314 16.2519 25.3573 16.3969C25.3613 16.453 25.3613 16.5095 25.3573 16.5656V18.5326L27.3886 16.1882C27.4669 16.1082 27.55 16.0332 27.6375 15.9634C27.72 15.9143 27.8145 15.8892 27.9105 15.8911C28.0508 15.8903 28.1881 15.9324 28.3039 16.0115C28.3585 16.0483 28.4051 16.0957 28.441 16.1509C28.4769 16.2061 28.5012 16.2679 28.5127 16.3327C28.5159 16.3486 28.5159 16.365 28.5127 16.3809C28.5088 16.3995 28.5088 16.4186 28.5127 16.4371C28.5124 16.5216 28.4903 16.6046 28.4484 16.678C28.4058 16.7557 28.3547 16.8284 28.2959 16.8947L26.9631 18.356L28.5689 20.845V20.9252C28.6522 21.0403 28.7172 21.1677 28.7616 21.3027V21.3428C28.7709 21.4358 28.7574 21.5297 28.7225 21.6164C28.6875 21.7031 28.6321 21.78 28.5608 21.8406C28.4269 21.9418 28.263 21.9955 28.0952 21.9932C27.9836 21.9977 27.8728 21.9728 27.774 21.9208C27.6671 21.8491 27.579 21.7527 27.5171 21.6398L26.0237 19.2312L25.3091 19.9779V21.3187C25.3139 21.4983 25.2509 21.6732 25.1325 21.8084C25.069 21.8704 24.9936 21.9189 24.9107 21.9506C24.8279 21.9824 24.7394 21.9969 24.6508 21.9932C24.5026 21.9963 24.3579 21.948 24.2413 21.8566C24.1279 21.7662 24.0509 21.638 24.0245 21.4954C24.0166 21.4368 24.0166 21.3773 24.0245 21.3187L24.0727 16.5656Z" fill="#FEE500"/>
</svg>
