<svg width="24" height="24" viewBox="0 0 24 24" fill="none" xmlns="http://www.w3.org/2000/svg">
<path d="M3.45602 7.23996L4.09914 7.62583L3.45602 7.23996ZM5.06783 4.55361L5.71095 4.93949L5.06783 4.55361ZM18.9322 4.55361L18.289 4.93949V4.93949L18.9322 4.55361ZM20.544 7.23996L19.9009 7.62583L20.544 7.23996ZM17.476 3.09479L17.2479 3.80925L17.2479 3.80925L17.476 3.09479ZM18.1883 3.49806L18.6835 2.93483L18.6835 2.93483L18.1883 3.49806ZM5.81171 3.49806L6.30696 4.06129L6.30696 4.06129L5.81171 3.49806ZM6.52395 3.09479L6.29579 2.38034V2.38034L6.52395 3.09479ZM20.9738 8.23113L20.2336 8.3522V8.3522L20.9738 8.23113ZM20.8586 7.8153L21.5556 7.5383L21.5556 7.53829L20.8586 7.8153ZM19.908 20.782L19.5675 20.1138L19.908 20.782ZM20.782 19.908L20.1138 19.5675L20.782 19.908ZM3.21799 19.908L2.54973 20.2485L2.54973 20.2485L3.21799 19.908ZM4.09202 20.782L4.43251 20.1138H4.43251L4.09202 20.782ZM3.02623 8.23113L2.28606 8.11007L3.02623 8.23113ZM3.14141 7.8153L2.44444 7.5383H2.44444L3.14141 7.8153ZM4 7.25C3.58579 7.25 3.25 7.58579 3.25 8C3.25 8.41421 3.58579 8.75 4 8.75V7.25ZM20 8.75C20.4142 8.75 20.75 8.41421 20.75 8C20.75 7.58579 20.4142 7.25 20 7.25V8.75ZM10 11.25C9.58579 11.25 9.25 11.5858 9.25 12C9.25 12.4142 9.58579 12.75 10 12.75V11.25ZM14 12.75C14.4142 12.75 14.75 12.4142 14.75 12C14.75 11.5858 14.4142 11.25 14 11.25V12.75ZM11.25 8C11.25 8.41421 11.5858 8.75 12 8.75C12.4142 8.75 12.75 8.41421 12.75 8H11.25ZM12.75 3C12.75 2.58579 12.4142 2.25 12 2.25C11.5858 2.25 11.25 2.58579 11.25 3H12.75ZM3 8.88635H2.25V17.8H3H3.75V8.88635H3ZM6.2 21V21.75H17.8V21V20.25H6.2V21ZM21 17.8H21.75V8.88635H21H20.25V17.8H21ZM3.45602 7.23996L4.09914 7.62583L5.71095 4.93949L5.06783 4.55361L4.42471 4.16774L2.8129 6.85409L3.45602 7.23996ZM7.81181 3V3.75H16.1882V3V2.25H7.81181V3ZM18.9322 4.55361L18.289 4.93949L19.9009 7.62583L20.544 7.23996L21.1871 6.85409L19.5753 4.16774L18.9322 4.55361ZM16.1882 3V3.75C16.8984 3.75 17.0888 3.75843 17.2479 3.80925L17.476 3.09479L17.7042 2.38034C17.2697 2.24157 16.7993 2.25 16.1882 2.25V3ZM18.9322 4.55361L19.5753 4.16774C19.2609 3.64371 19.0261 3.23604 18.6835 2.93483L18.1883 3.49806L17.693 4.06128C17.8185 4.17159 17.9236 4.33046 18.289 4.93949L18.9322 4.55361ZM17.476 3.09479L17.2479 3.80925C17.4121 3.86167 17.5636 3.94748 17.693 4.06129L18.1883 3.49806L18.6835 2.93483C18.3988 2.68446 18.0654 2.49568 17.7042 2.38034L17.476 3.09479ZM5.06783 4.55361L5.71095 4.93949C6.07637 4.33046 6.18151 4.17159 6.30696 4.06129L5.81171 3.49806L5.31646 2.93483C4.97391 3.23604 4.73913 3.64371 4.42471 4.16774L5.06783 4.55361ZM7.81181 3V2.25C7.20068 2.25 6.73032 2.24157 6.29579 2.38034L6.52395 3.09479L6.75211 3.80925C6.91125 3.75843 7.10157 3.75 7.81181 3.75V3ZM5.81171 3.49806L6.30696 4.06129C6.43639 3.94748 6.58794 3.86167 6.75211 3.80925L6.52395 3.09479L6.29579 2.38034C5.93462 2.49568 5.60119 2.68446 5.31646 2.93483L5.81171 3.49806ZM21 8.88635H21.75C21.75 8.58001 21.7523 8.34435 21.7139 8.11007L20.9738 8.23113L20.2336 8.3522C20.2477 8.43862 20.25 8.53287 20.25 8.88635H21ZM20.544 7.23996L19.9009 7.62583C20.0827 7.92893 20.1293 8.01092 20.1616 8.0923L20.8586 7.8153L21.5556 7.53829C21.4679 7.31769 21.3447 7.11678 21.1871 6.85409L20.544 7.23996ZM20.9738 8.23113L21.7139 8.11007C21.6819 7.91433 21.6288 7.72262 21.5556 7.5383L20.8586 7.8153L20.1616 8.09229C20.1949 8.17608 20.2191 8.26322 20.2336 8.3522L20.9738 8.23113ZM17.8 21V21.75C18.3477 21.75 18.8035 21.7506 19.1747 21.7203C19.5546 21.6892 19.9112 21.6221 20.2485 21.4503L19.908 20.782L19.5675 20.1138C19.4769 20.1599 19.3396 20.2018 19.0525 20.2252C18.7566 20.2494 18.3724 20.25 17.8 20.25V21ZM21 17.8H20.25C20.25 18.3724 20.2494 18.7566 20.2252 19.0525C20.2018 19.3396 20.1599 19.4769 20.1138 19.5675L20.782 19.908L21.4503 20.2485C21.6221 19.9112 21.6892 19.5546 21.7203 19.1747C21.7506 18.8035 21.75 18.3477 21.75 17.8H21ZM19.908 20.782L20.2485 21.4503C20.7659 21.1866 21.1866 20.7659 21.4503 20.2485L20.782 19.908L20.1138 19.5675C19.9939 19.8027 19.8027 19.9939 19.5675 20.1138L19.908 20.782ZM3 17.8H2.25C2.25 18.3477 2.24942 18.8035 2.27974 19.1747C2.31078 19.5546 2.37789 19.9112 2.54973 20.2485L3.21799 19.908L3.88624 19.5675C3.8401 19.4769 3.79822 19.3396 3.77476 19.0525C3.75058 18.7566 3.75 18.3724 3.75 17.8H3ZM6.2 21V20.25C5.62757 20.25 5.24336 20.2494 4.94748 20.2252C4.66035 20.2018 4.52307 20.1599 4.43251 20.1138L4.09202 20.782L3.75153 21.4503C4.08879 21.6221 4.44545 21.6892 4.82533 21.7203C5.19646 21.7506 5.65232 21.75 6.2 21.75V21ZM3.21799 19.908L2.54973 20.2485C2.81338 20.7659 3.23408 21.1866 3.75153 21.4503L4.09202 20.782L4.43251 20.1138C4.19731 19.9939 4.00608 19.8027 3.88624 19.5675L3.21799 19.908ZM3 8.88635H3.75C3.75 8.53288 3.75226 8.43862 3.76639 8.3522L3.02623 8.23113L2.28606 8.11007C2.24774 8.34435 2.25 8.58001 2.25 8.88635H3ZM3.45602 7.23996L2.8129 6.85409C2.65529 7.11678 2.53211 7.31769 2.44444 7.5383L3.14141 7.8153L3.83838 8.0923C3.87072 8.01092 3.91728 7.92894 4.09914 7.62583L3.45602 7.23996ZM3.02623 8.23113L3.76639 8.3522C3.78095 8.26322 3.80508 8.17608 3.83838 8.0923L3.14141 7.8153L2.44444 7.5383C2.37118 7.72262 2.31808 7.91433 2.28606 8.11007L3.02623 8.23113ZM4 8V8.75H20V8V7.25H4V8ZM10 12V12.75H14V12V11.25H10V12ZM12 8H12.75V3H12H11.25V8H12Z" fill="currentColor"/>
</svg>
