<svg width="21" height="21" viewBox="0 0 21 21" fill="none" xmlns="http://www.w3.org/2000/svg">
<path d="M10.5 3.5C6.15076 3.5 2.625 7.02576 2.625 11.375C2.625 15.7242 6.15076 19.25 10.5 19.25C14.8492 19.25 18.375 15.7242 18.375 11.375C18.375 7.02576 14.8492 3.5 10.5 3.5ZM10.5 3.5V0.875M15.75 5.25L17.5 3.5M5.25 5.25L3.5 3.5M8.75 0.875H12.25M10.5 7.875V11.375M16.625 2.2605C17.4652 2.85344 18.2145 3.56662 18.8479 4.375M2.30762 4.375C2.90163 3.61682 3.59764 2.94238 4.375 2.37234" stroke="#133A1B" stroke-width="1.5" stroke-linecap="round"/>
</svg>
