<svg width="24" height="24" viewBox="0 0 24 24" fill="none" xmlns="http://www.w3.org/2000/svg">
<path d="M11.25 15.9998C11.25 16.4141 11.5858 16.7498 12 16.7498C12.4142 16.7498 12.75 16.4141 12.75 15.9998H11.25ZM12.75 4.99985C12.75 4.58564 12.4142 4.24985 12 4.24985C11.5858 4.24985 11.25 4.58564 11.25 4.99985L12.75 4.99985ZM15.4697 7.53018C15.7626 7.82307 16.2374 7.82307 16.5303 7.53018C16.8232 7.23729 16.8232 6.76241 16.5303 6.46952L15.4697 7.53018ZM12.7071 3.70696L12.1768 4.23729L12.7071 3.70696ZM11.2929 3.70696L11.8232 4.23729L11.8232 4.23729L11.2929 3.70696ZM7.46967 6.46952C7.17678 6.76241 7.17678 7.23729 7.46967 7.53018C7.76256 7.82307 8.23744 7.82307 8.53033 7.53018L7.46967 6.46952ZM3.75 15.9998C3.75 15.5856 3.41421 15.2498 3 15.2498C2.58579 15.2498 2.25 15.5856 2.25 15.9998H3.75ZM21.75 15.9998C21.75 15.5856 21.4142 15.2498 21 15.2498C20.5858 15.2498 20.25 15.5856 20.25 15.9998H21.75ZM19.362 20.6729L19.0215 20.0046L19.362 20.6729ZM20.673 19.3618L21.3413 19.7023L20.673 19.3618ZM3.32698 19.3618L2.65873 19.7023L3.32698 19.3618ZM4.63803 20.6729L4.29754 21.3411H4.29754L4.63803 20.6729ZM12 15.9998H12.75L12.75 4.99985L12 4.99985L11.25 4.99985L11.25 15.9998H12ZM16 6.99985L16.5303 6.46952L13.2374 3.17663L12.7071 3.70696L12.1768 4.23729L15.4697 7.53018L16 6.99985ZM11.2929 3.70696L10.7626 3.17663L7.46967 6.46952L8 6.99985L8.53033 7.53018L11.8232 4.23729L11.2929 3.70696ZM12.7071 3.70696L13.2374 3.17663C12.554 2.49321 11.446 2.49321 10.7626 3.17663L11.2929 3.70696L11.8232 4.23729C11.9209 4.13965 12.0791 4.13965 12.1768 4.23729L12.7071 3.70696ZM3 15.9998H2.25V16.1998H3H3.75V15.9998H3ZM7.8 20.9998V21.7498H16.2V20.9998V20.2498H7.8V20.9998ZM21 16.1998H21.75V15.9998H21H20.25V16.1998H21ZM16.2 20.9998V21.7498C17.0277 21.7498 17.6936 21.7504 18.2315 21.7065C18.7781 21.6618 19.2582 21.5675 19.7025 21.3411L19.362 20.6729L19.0215 20.0046C18.824 20.1053 18.5632 20.1744 18.1093 20.2115C17.6467 20.2493 17.0525 20.2498 16.2 20.2498V20.9998ZM21 16.1998H20.25C20.25 17.0523 20.2494 17.6465 20.2116 18.1092C20.1745 18.563 20.1054 18.8238 20.0048 19.0213L20.673 19.3618L21.3413 19.7023C21.5676 19.2581 21.662 18.778 21.7066 18.2313C21.7506 17.6934 21.75 17.0276 21.75 16.1998H21ZM19.362 20.6729L19.7025 21.3411C20.4081 20.9816 20.9817 20.4079 21.3413 19.7023L20.673 19.3618L20.0048 19.0213C19.789 19.4447 19.4448 19.7889 19.0215 20.0046L19.362 20.6729ZM3 16.1998H2.25C2.25 17.0276 2.24942 17.6934 2.29336 18.2313C2.33803 18.778 2.43238 19.2581 2.65873 19.7023L3.32698 19.3618L3.99524 19.0213C3.8946 18.8238 3.82546 18.563 3.78838 18.1092C3.75058 17.6465 3.75 17.0523 3.75 16.1998H3ZM7.8 20.9998V20.2498C6.94755 20.2498 6.35331 20.2493 5.89068 20.2115C5.4368 20.1744 5.17604 20.1053 4.97852 20.0046L4.63803 20.6729L4.29754 21.3411C4.74175 21.5675 5.22189 21.6618 5.76853 21.7065C6.30641 21.7504 6.9723 21.7498 7.8 21.7498V20.9998ZM3.32698 19.3618L2.65873 19.7023C3.01825 20.4079 3.59193 20.9816 4.29754 21.3411L4.63803 20.6729L4.97852 20.0046C4.55516 19.7889 4.21095 19.4447 3.99524 19.0213L3.32698 19.3618Z" fill="black"/>
</svg>
