<svg width="16" height="16" viewBox="0 0 16 16" fill="none" xmlns="http://www.w3.org/2000/svg">
<path d="M6.98859 10.3196C6.98859 10.7338 7.32438 11.0696 7.73859 11.0696C8.1528 11.0696 8.48859 10.7338 8.48859 10.3196H7.73859H6.98859ZM8.48859 3.22578C8.48859 2.81157 8.1528 2.47578 7.73859 2.47578C7.32438 2.47578 6.98859 2.81157 6.98859 3.22578H7.73859L8.48859 3.22578ZM9.78782 5.0459C10.0807 5.33879 10.5556 5.33879 10.8485 5.0459C11.1414 4.753 11.1414 4.27813 10.8485 3.98524L10.3182 4.51557L9.78782 5.0459ZM8.1946 2.39201L7.66427 2.92234L8.1946 2.39201ZM7.28258 2.39201L7.81291 2.92234L7.81291 2.92234L7.28258 2.39201ZM4.6287 3.98524C4.3358 4.27813 4.3358 4.753 4.6287 5.0459C4.92159 5.33879 5.39646 5.33879 5.68936 5.0459L5.15903 4.51557L4.6287 3.98524ZM2.68457 10.3196C2.68457 9.90537 2.34878 9.56959 1.93457 9.56959C1.52036 9.56959 1.18457 9.90537 1.18457 10.3196H1.93457H2.68457ZM14.2926 10.3196C14.2926 9.90537 13.9568 9.56959 13.5426 9.56959C13.1284 9.56959 12.7926 9.90537 12.7926 10.3196H13.5426H14.2926ZM12.4863 13.3332L12.1458 12.6649L12.1458 12.6649L12.4863 13.3332ZM13.3317 12.4877L14 12.8282V12.8282L13.3317 12.4877ZM2.14544 12.4877L1.47718 12.8282L2.14544 12.4877ZM2.99092 13.3332L2.65043 14.0014H2.65043L2.99092 13.3332ZM7.73859 10.3196H8.48859L8.48859 3.22578L7.73859 3.22578H6.98859L6.98859 10.3196H7.73859ZM10.3182 4.51557L10.8485 3.98524L8.72493 1.86168L8.1946 2.39201L7.66427 2.92234L9.78782 5.0459L10.3182 4.51557ZM7.28258 2.39201L6.75225 1.86168L4.6287 3.98524L5.15903 4.51557L5.68936 5.0459L7.81291 2.92234L7.28258 2.39201ZM8.1946 2.39201L8.72493 1.86168C8.18019 1.31694 7.29699 1.31694 6.75225 1.86168L7.28258 2.39201L7.81291 2.92234C7.77187 2.96339 7.70531 2.96339 7.66427 2.92234L8.1946 2.39201ZM1.93457 10.3196H1.18457V10.4486H1.93457H2.68457V10.3196H1.93457ZM5.03005 13.544V14.294H10.4471V13.544V12.794H5.03005V13.544ZM13.5426 10.4486H14.2926V10.3196H13.5426H12.7926V10.4486H13.5426ZM10.4471 13.544V14.294C10.9765 14.294 11.4187 14.2946 11.7789 14.2652C12.1479 14.235 12.4965 14.1697 12.8268 14.0014L12.4863 13.3332L12.1458 12.6649C12.0622 12.7075 11.933 12.7476 11.6567 12.7702C11.3718 12.7935 11.0013 12.794 10.4471 12.794V13.544ZM13.5426 10.4486H12.7926C12.7926 11.0027 12.792 11.3732 12.7687 11.6582C12.7462 11.9344 12.7061 12.0636 12.6635 12.1472L13.3317 12.4877L14 12.8282C14.1683 12.4979 14.2336 12.1493 14.2638 11.7803C14.2932 11.4201 14.2926 10.9779 14.2926 10.4486H13.5426ZM12.4863 13.3332L12.8268 14.0014C13.3319 13.744 13.7426 13.3333 14 12.8282L13.3317 12.4877L12.6635 12.1472C12.5499 12.3701 12.3687 12.5513 12.1458 12.6649L12.4863 13.3332ZM1.93457 10.4486H1.18457C1.18457 10.9779 1.18399 11.4201 1.21342 11.7803C1.24357 12.1493 1.3089 12.4979 1.47718 12.8282L2.14544 12.4877L2.81369 12.1472C2.77111 12.0636 2.73101 11.9344 2.70844 11.6582C2.68515 11.3732 2.68457 11.0027 2.68457 10.4486H1.93457ZM5.03005 13.544V12.794C4.47591 12.794 4.10542 12.7935 3.82043 12.7702C3.5442 12.7476 3.41499 12.7075 3.33141 12.6649L2.99092 13.3332L2.65043 14.0014C2.9807 14.1697 3.32929 14.235 3.69828 14.2652C4.05852 14.2946 4.50066 14.294 5.03005 14.294V13.544ZM2.14544 12.4877L1.47718 12.8282C1.73457 13.3333 2.14527 13.744 2.65043 14.0014L2.99092 13.3332L3.33141 12.6649C3.1085 12.5513 2.92727 12.3701 2.81369 12.1472L2.14544 12.4877Z" fill="#262626"/>
</svg>
