<svg width="18" height="18" viewBox="0 0 18 18" fill="none" xmlns="http://www.w3.org/2000/svg">
<path d="M3.81901 14.8369L4.15951 14.1686H4.15951L3.81901 14.8369ZM3.16349 14.1814L3.83175 13.8409L3.83174 13.8409L3.16349 14.1814ZM14.181 14.8369L13.8405 14.1686H13.8405L14.181 14.8369ZM14.8365 14.1814L14.1683 13.8409V13.8409L14.8365 14.1814ZM14.181 4.66388L13.8405 5.33213L13.8405 5.33213L14.181 4.66388ZM14.8365 5.3194L14.1683 5.65989L14.8365 5.3194ZM3.81901 4.66388L3.47852 3.99562H3.47852L3.81901 4.66388ZM3.16349 5.3194L2.49524 4.97891L2.49524 4.97891L3.16349 5.3194ZM11.6595 11.1686L12 10.5004L11.6595 11.1686ZM11.3317 10.8409L12 10.5004L11.3317 10.8409ZM16.4183 10.8409L15.75 10.5004L16.4183 10.8409ZM16.0905 11.1686L15.75 10.5004L16.0905 11.1686ZM16.0905 8.33213L15.75 9.00039L16.0905 8.33213ZM16.4183 8.65989L15.75 9.00039L16.4183 8.65989ZM11.6595 8.33213L12 9.00039L11.6595 8.33213ZM11.3317 8.65989L12 9.00039L11.3317 8.65989ZM4.22146 3.80403C3.83687 3.95786 3.64981 4.39434 3.80364 4.77893C3.95748 5.16352 4.39396 5.35058 4.77854 5.19674L4.5 4.50039L4.22146 3.80403ZM10.9715 1.9118L10.6929 1.21545L10.6929 1.21545L10.9715 1.9118ZM11.25 4.50039C11.25 4.9146 11.5858 5.25039 12 5.25039C12.4142 5.25039 12.75 4.9146 12.75 4.50039H12H11.25ZM5.4 4.50039V5.25039H12.6V4.50039V3.75039H5.4V4.50039ZM12.6 15.0004V14.2504H5.4V15.0004V15.7504H12.6V15.0004ZM3 12.6004H3.75V6.90039H3H2.25V12.6004H3ZM15 6.90039H14.25V8.43789H15H15.75V6.90039H15ZM15 11.391H14.25V12.6004H15H15.75V11.391H15ZM5.4 15.0004V14.2504C4.96758 14.2504 4.68838 14.2498 4.47588 14.2324C4.27213 14.2158 4.19659 14.1875 4.15951 14.1686L3.81901 14.8369L3.47852 15.5051C3.76231 15.6497 4.05722 15.7032 4.35373 15.7275C4.64148 15.751 4.99234 15.7504 5.4 15.7504V15.0004ZM3 12.6004H2.25C2.25 13.008 2.24942 13.3589 2.27293 13.6467C2.29715 13.9432 2.35064 14.2381 2.49524 14.5219L3.16349 14.1814L3.83174 13.8409C3.81285 13.8038 3.78459 13.7283 3.76795 13.5245C3.75058 13.312 3.75 13.0328 3.75 12.6004H3ZM3.81901 14.8369L4.15951 14.1686C4.01838 14.0967 3.90365 13.982 3.83175 13.8409L3.16349 14.1814L2.49524 14.5219C2.71095 14.9452 3.05516 15.2894 3.47852 15.5051L3.81901 14.8369ZM12.6 15.0004V15.7504C13.0077 15.7504 13.3585 15.751 13.6463 15.7275C13.9428 15.7032 14.2377 15.6497 14.5215 15.5051L14.181 14.8369L13.8405 14.1686C13.8034 14.1875 13.7279 14.2158 13.5241 14.2324C13.3116 14.2498 13.0324 14.2504 12.6 14.2504V15.0004ZM15 12.6004H14.25C14.25 13.0328 14.2494 13.312 14.2321 13.5245C14.2154 13.7283 14.1872 13.8038 14.1683 13.8409L14.8365 14.1814L15.5048 14.5219C15.6494 14.2381 15.7028 13.9432 15.7271 13.6467C15.7506 13.3589 15.75 13.008 15.75 12.6004H15ZM14.181 14.8369L14.5215 15.5051C14.9448 15.2894 15.289 14.9452 15.5048 14.5219L14.8365 14.1814L14.1683 13.8409C14.0963 13.982 13.9816 14.0967 13.8405 14.1686L14.181 14.8369ZM12.6 4.50039V5.25039C13.0324 5.25039 13.3116 5.25097 13.5241 5.26833C13.7279 5.28498 13.8034 5.31324 13.8405 5.33213L14.181 4.66388L14.5215 3.99562C14.2377 3.85103 13.9428 3.79754 13.6463 3.77331C13.3585 3.7498 13.0077 3.75039 12.6 3.75039V4.50039ZM15 6.90039H15.75C15.75 6.49272 15.7506 6.14187 15.7271 5.85412C15.7028 5.55761 15.6494 5.26269 15.5048 4.97891L14.8365 5.3194L14.1683 5.65989C14.1872 5.69698 14.2154 5.77252 14.2321 5.97626C14.2494 6.18877 14.25 6.46797 14.25 6.90039H15ZM14.181 4.66388L13.8405 5.33213C13.9816 5.40404 14.0963 5.51877 14.1683 5.65989L14.8365 5.3194L15.5048 4.97891C15.2891 4.55554 14.9448 4.21134 14.5215 3.99562L14.181 4.66388ZM5.4 4.50039V3.75039C4.99234 3.75039 4.64148 3.7498 4.35373 3.77331C4.05722 3.79754 3.76231 3.85103 3.47852 3.99562L3.81901 4.66388L4.15951 5.33213C4.19659 5.31324 4.27213 5.28498 4.47588 5.26833C4.68838 5.25097 4.96758 5.25039 5.4 5.25039V4.50039ZM3 6.90039H3.75C3.75 6.46797 3.75058 6.18877 3.76795 5.97626C3.78459 5.77252 3.81285 5.69698 3.83175 5.65989L3.16349 5.3194L2.49524 4.97891C2.35064 5.26269 2.29715 5.55761 2.27293 5.85412C2.24942 6.14187 2.25 6.49272 2.25 6.90039H3ZM3.81901 4.66388L3.47852 3.99562C3.05516 4.21134 2.71095 4.55554 2.49524 4.97891L3.16349 5.3194L3.83175 5.65989C3.90365 5.51877 4.01839 5.40404 4.15951 5.33213L3.81901 4.66388ZM12.45 8.25039V9.00039H15.3V8.25039V7.50039H12.45V8.25039ZM16.5 9.45039H15.75V10.0504H16.5H17.25V9.45039H16.5ZM15.3 11.2504V10.5004H12.45V11.2504V12.0004H15.3V11.2504ZM11.25 10.0504H12V9.45039H11.25H10.5V10.0504H11.25ZM12.45 11.2504V10.5004C12.2276 10.5004 12.1059 10.4998 12.0185 10.4927C11.9398 10.4862 11.9569 10.4784 12 10.5004L11.6595 11.1686L11.319 11.8369C11.5226 11.9406 11.7249 11.9737 11.8963 11.9877C12.059 12.001 12.2524 12.0004 12.45 12.0004V11.2504ZM11.25 10.0504H10.5C10.5 10.248 10.4994 10.4414 10.5127 10.6041C10.5267 10.7755 10.5598 10.9778 10.6635 11.1814L11.3317 10.8409L12 10.5004C12.022 10.5435 12.0142 10.5606 12.0077 10.4819C12.0006 10.3945 12 10.2728 12 10.0504H11.25ZM11.6595 11.1686L12 10.5004L11.3317 10.8409L10.6635 11.1814C10.8073 11.4636 11.0368 11.6931 11.319 11.8369L11.6595 11.1686ZM16.5 10.0504H15.75C15.75 10.2728 15.7494 10.3945 15.7423 10.4819C15.7358 10.5606 15.728 10.5435 15.75 10.5004L16.4183 10.8409L17.0865 11.1814C17.1902 10.9778 17.2233 10.7755 17.2373 10.6041C17.2506 10.4414 17.25 10.248 17.25 10.0504H16.5ZM15.3 11.2504V12.0004C15.4976 12.0004 15.691 12.001 15.8537 11.9877C16.0251 11.9737 16.2274 11.9406 16.431 11.8369L16.0905 11.1686L15.75 10.5004C15.7931 10.4784 15.8102 10.4862 15.7315 10.4927C15.6441 10.4998 15.5224 10.5004 15.3 10.5004V11.2504ZM16.4183 10.8409L15.75 10.5004L16.0905 11.1686L16.431 11.8369C16.7132 11.6931 16.9427 11.4636 17.0865 11.1814L16.4183 10.8409ZM15.3 8.25039V9.00039C15.5224 9.00039 15.6441 9.00097 15.7315 9.00811C15.8102 9.01454 15.7931 9.02236 15.75 9.00039L16.0905 8.33213L16.431 7.66388C16.2274 7.56015 16.0251 7.5271 15.8537 7.5131C15.691 7.4998 15.4976 7.50039 15.3 7.50039V8.25039ZM16.5 9.45039H17.25C17.25 9.25274 17.2506 9.0594 17.2373 8.89671C17.2233 8.72527 17.1902 8.52297 17.0865 8.3194L16.4183 8.65989L15.75 9.00039C15.728 8.95725 15.7358 8.94018 15.7423 9.01886C15.7494 9.1063 15.75 9.22799 15.75 9.45039H16.5ZM16.0905 8.33213L15.75 9.00039V9.00039L16.4183 8.65989L17.0865 8.3194C16.9427 8.03716 16.7132 7.80769 16.431 7.66388L16.0905 8.33213ZM12.45 8.25039V7.50039C12.2524 7.50039 12.059 7.4998 11.8963 7.5131C11.7249 7.5271 11.5226 7.56015 11.319 7.66388L11.6595 8.33213L12 9.00039C11.9569 9.02236 11.9398 9.01454 12.0185 9.00811C12.1059 9.00097 12.2276 9.00039 12.45 9.00039V8.25039ZM11.25 9.45039H12C12 9.22799 12.0006 9.1063 12.0077 9.01886C12.0142 8.94018 12.022 8.95725 12 9.00039L11.3317 8.65989L10.6635 8.3194C10.5598 8.52297 10.5267 8.72527 10.5127 8.89671C10.4994 9.0594 10.5 9.25274 10.5 9.45039H11.25ZM11.6595 8.33213L11.319 7.66388C11.0368 7.80769 10.8073 8.03716 10.6635 8.3194L11.3317 8.65989L12 9.00039V9.00039L11.6595 8.33213ZM4.5 4.50039L4.77854 5.19674L11.25 2.60816L10.9715 1.9118L10.6929 1.21545L4.22146 3.80403L4.5 4.50039ZM12 2.60816H11.25V4.50039H12H12.75V2.60816H12ZM10.9715 1.9118L11.25 2.60816L11.25 2.60816H12H12.75C12.75 1.54696 11.6782 0.821328 10.6929 1.21545L10.9715 1.9118Z" fill="#133A1B"/>
</svg>
