<svg width="100" height="100" viewBox="0 0 100 100" fill="none" xmlns="http://www.w3.org/2000/svg">
<rect width="100" height="100" rx="50" fill="#D9D9D9"/>
<path d="M23.5413 45.0441V60.1743C23.5413 61.1813 23.5917 62.0373 23.6924 62.7338C23.7931 63.4303 24.0029 64.0009 24.3133 64.4457C24.6238 64.8904 25.0518 65.2009 25.5973 65.3939C26.1427 65.5869 26.8392 65.6876 27.6952 65.6876H28.3917V66.1156H14V65.6876H14.579C15.435 65.6876 16.1231 65.5869 16.6518 65.3939C17.1804 65.2009 17.5916 64.882 17.8937 64.4457C18.1958 64.0093 18.3888 63.4387 18.4979 62.7338C18.5986 62.0373 18.6574 61.1813 18.6574 60.1743V45.0441H14.5035V44.3812H18.6574V43.0973C18.6574 41.5448 18.9595 40.0847 19.5721 38.7168C20.1763 37.349 21.0658 36.2497 22.2322 35.4189C23.5161 34.5965 24.8924 34.135 26.3525 34.0259C27.8127 33.9252 29.0714 34.1182 30.1372 34.6049C31.0435 35.0413 31.5637 35.57 31.7064 36.1742C31.8491 36.7784 31.7735 37.2819 31.4714 37.6847C31.1777 38.0875 30.7498 38.2972 30.1875 38.3224C29.6337 38.3476 29.0966 38.0035 28.5763 37.2735C27.8295 36.2665 27.0322 35.5784 26.1931 35.2175C25.3539 34.8567 24.6322 34.9238 24.0364 35.4105C23.7008 35.6958 23.491 36.0399 23.3987 36.4343C23.3063 36.8371 23.2644 37.349 23.2812 37.97C23.2896 38.591 23.3399 39.3462 23.4154 40.2357C23.491 41.1252 23.5329 42.191 23.5329 43.4329V44.3644H28.8448V45.0274H23.5329L23.5413 45.0441Z" fill="#133A1B"/>
<path d="M53.6674 44.3812H55.4548V59.5533C55.4548 60.6359 55.5387 61.559 55.7065 62.3058C55.8744 63.0611 56.1093 63.6569 56.4198 64.11C56.7303 64.5632 57.108 64.882 57.5443 65.0834C57.9807 65.2765 58.459 65.3772 58.9793 65.3772C59.6003 65.3772 60.1793 65.2261 60.7248 64.9072C61.2702 64.5967 61.7401 64.1688 62.1429 63.6233C62.5457 63.0778 62.8646 62.4401 63.1164 61.7016C63.3597 60.9631 63.4856 60.1408 63.4856 59.2429V50.3561C63.4856 49.2987 63.4269 48.4764 63.3094 47.8973C63.1919 47.3183 63.0325 46.8903 62.8227 46.6386C62.6129 46.3868 62.3527 46.2442 62.0255 46.2358C61.6982 46.219 61.329 46.2526 60.9178 46.3365L60.3387 46.454V46.026L66.5821 44.398H68.3696V60.1911C68.3696 62.1044 68.5794 63.3967 69.0073 64.0681C69.4353 64.7394 70.0898 64.9995 70.9626 64.8401L71.1556 64.7646L71.3486 64.7226L72.3975 64.4541V64.9156L68.3612 66.1156H65.9528C65.2563 66.0401 64.7108 65.7128 64.3248 65.1422C63.9388 64.5716 63.6618 63.6569 63.5108 62.3897C63.0744 63.6317 62.3779 64.6219 61.438 65.3604C60.4898 66.0988 59.424 66.5436 58.2408 66.703C57.1583 66.8793 56.1429 66.8793 55.2114 66.6863C54.28 66.4932 53.466 66.1156 52.7695 65.5618C52.073 65.0079 51.5275 64.2695 51.1415 63.3464C50.7555 62.4317 50.5625 61.3408 50.5625 60.0652V49.5169C50.5373 48.7701 50.4785 48.1575 50.3862 47.6959C50.2939 47.2344 50.1513 46.8819 49.9415 46.647C49.7317 46.412 49.4632 46.2693 49.1275 46.219C48.7918 46.1686 48.3555 46.177 47.81 46.261L46.6436 46.454V46.026L53.6674 44.398V44.3812Z" fill="#133A1B"/>
<path d="M78.9424 36.7784V44.3813H85.3453V45.0442H78.9424V57.6905C78.9424 59.0835 78.9089 60.2583 78.8501 61.1982C78.783 62.138 78.7411 62.9185 78.7159 63.5227C78.6907 64.1269 78.6991 64.5968 78.7578 64.9157C78.8166 65.2346 78.9676 65.4695 79.2194 65.5954C79.4543 65.7297 79.6809 65.7464 79.8991 65.6541C80.1173 65.5618 80.3522 65.394 80.5956 65.1506C80.839 64.9073 81.0907 64.6136 81.3509 64.2779C81.611 63.9422 81.8795 63.5814 82.1648 63.1954C82.5257 62.7087 82.9369 62.4653 83.39 62.4737C83.8432 62.4905 84.2124 62.6583 84.4977 62.9772C84.783 63.3045 84.9341 63.7241 84.9425 64.2359C84.9509 64.7562 84.6907 65.2597 84.1453 65.7464C83.7593 66.0821 83.3061 66.3255 82.7858 66.4849C82.2655 66.636 81.7369 66.7283 81.1914 66.7534C80.646 66.7786 80.1089 66.7367 79.5634 66.6192C79.018 66.5017 78.5396 66.3255 78.1285 66.0989C77.4319 65.7381 76.8194 65.2765 76.3075 64.7227C75.7872 64.1688 75.3676 63.5562 75.0235 62.9017C74.6879 62.2387 74.4445 61.559 74.2851 60.8457C74.134 60.1324 74.0501 59.4275 74.0501 58.731V45.0442H70.3242V44.3813H70.7102C71.4319 44.3813 72.2039 44.2554 73.0179 44.0121C73.8319 43.7687 74.604 43.3491 75.3256 42.7701C76.0473 42.1911 76.6851 41.4106 77.2305 40.4456C77.776 39.4722 78.1201 38.2554 78.2795 36.7784H78.9424Z" fill="#133A1B"/>
<path d="M37.9499 54.9715V60.7533C37.9751 62.5156 38.2352 63.7659 38.7219 64.5128C39.2086 65.2596 40.0898 65.654 41.3569 65.6792H41.7429V66.1072H29.0967V65.6792H29.2477C30.1037 65.6792 30.8002 65.5785 31.3456 65.3855C31.8911 65.1925 32.3023 64.8736 32.5876 64.4373C32.8729 64.0009 33.0659 63.4303 33.1666 62.7254C33.2673 62.0289 33.3177 61.1729 33.3177 60.1659V50.3896C33.2925 49.6176 33.2254 48.963 33.1247 48.4511C33.024 47.9309 32.8561 47.5197 32.6212 47.2092C32.3862 46.8987 32.0757 46.7057 31.6897 46.6302C31.3037 46.5546 30.8086 46.5798 30.2128 46.7057L29.2058 46.9742V46.5462L36.5401 44.3728H37.3541C37.4548 44.9434 37.5555 45.598 37.6478 46.3532C37.7401 47.1085 37.8072 47.9141 37.8576 48.7952" fill="#133A1B"/>
<path d="M42.8177 48.0652C41.8107 48.5519 38.5547 48.4176 38.5547 48.4176C38.5547 48.4176 40.4428 45.7575 41.4498 45.2708C42.4568 44.784 45.1086 45.212 45.1086 45.212C45.1086 45.212 43.8163 47.5785 42.8177 48.0652Z" fill="#133A1B"/>
</svg>
